PathFileType	4	(X/Y/Z)	E:\Studenten\Marcel_BSc\Ayumi_25_09_2024\25-09-2024\sumo_dl_80kg.trc
DataRate	CameraRate	NumFrames	NumMarkers	Units	OrigDataRate	OrigDataStartFrame	OrigNumFrames
200.0	200.0	4	52	mm	200.0	707	2827	
Frame#	Time	RSACR			LSACR			USACR			LBAR			RBAR			RHEE			RMT1			RMT5			RMT2			LHEE			LMT1			LMT5			LMT2			LMMAL			LLMAL			LTIB4			LTIB2			LTIB3			LTIB1			RMMAL			RLMAL			RTIB1			RTIB2			RTIB3			RTHI1			RTHI4			RTHI3			RTHI2			LTHI1			LTHI4			LTHI3			LTHI2			FHD			LBHD			RBHD			C7			T10			CLAV			LSHO			RSHO			LRAD			LUL			LRFIN			RRAD			RUL			RUFIN			LDUPA			LMUPA			LUUPA			RDUPA			RUUPA			RMUPA			
		X1	Y1	Z1	X2	Y2	Z2	X3	Y3	Z3	X4	Y4	Z4	X5	Y5	Z5	X6	Y6	Z6	X7	Y7	Z7	X8	Y8	Z8	X9	Y9	Z9	X10	Y10	Z10	X11	Y11	Z11	X12	Y12	Z12	X13	Y13	Z13	X14	Y14	Z14	X15	Y15	Z15	X16	Y16	Z16	X17	Y17	Z17	X18	Y18	Z18	X19	Y19	Z19	X20	Y20	Z20	X21	Y21	Z21	X22	Y22	Z22	X23	Y23	Z23	X24	Y24	Z24	X25	Y25	Z25	X26	Y26	Z26	X27	Y27	Z27	X28	Y28	Z28	X29	Y29	Z29	X30	Y30	Z30	X31	Y31	Z31	X32	Y32	Z32	X33	Y33	Z33	X34	Y34	Z34	X35	Y35	Z35	X36	Y36	Z36	X37	Y37	Z37	X38	Y38	Z38	X39	Y39	Z39	X40	Y40	Z40	X41	Y41	Z41	X42	Y42	Z42	X43	Y43	Z43	X44	Y44	Z44	X45	Y45	Z45	X46	Y46	Z46	X47	Y47	Z47	X48	Y48	Z48	X49	Y49	Z49	X50	Y50	Z50	X51	Y51	Z51	X52	Y52	Z52	
707	3.53	399.00922	868.18073	-970.27698	400.0882	869.62738	-910.72821	387.66312	882.36517	-940.06989	208.3342	252.20906	196.63103	179.12775	244.42737	-2023.8035	294.00821	32.241676	-1361.0908	122.68158	43.509296	-1458.1062	184.87801	32.623257	-1510.031	150.40135	41.711037	-1488.4066	334.01843	41.718155	-488.86044	159.5462	48.96294	-404.09207	220.32504	32.921696	-350.18314	182.46243	46.633904	-372.767	273.93274	64.961685	-509.75424	309.19946	74.745224	-437.63797	329.26367	206.05624	-501.1553	311.56116	268.30753	-512.02161	352.5015	254.70418	-539.12366	345.53357	296.97684	-549.59607	242.06276	59.396523	-1350.7419	279.08389	73.495506	-1414.5129	270.26624	313.43295	-1338.2559	313.23807	296.3364	-1317.9716	283.93643	251.26782	-1355.0182	351.48108	729.25702	-1131.2271	274.15814	607.38867	-1205.6671	320.40201	585.82031	-1199.3971	318.73523	649.02441	-1180.2335	367.14923	719.88477	-741.18213	344.49561	596.00708	-675.15771	295.2691	605.37952	-662.84143	324.61728	656.96198	-690.81476	-18.353821	1381.0637	-815.72858	71.061211	1447.9802	-834.50964	76.763443	1446.0143	-959.34833	215.40453	1285.938	-913.7868	366.57675	923.75989	-935.12341	122.25688	1182.4237	-920.31525	210.4893	1246.6794	-761.68231	171.78023	1256.2545	-1061.856	149.65065	914.19031	-364.15884	184.55447	927.34717	-348.70084	129.03075	850.54913	-303.84543	147.78804	954.71826	-1478.6528	189.45439	966.54321	-1497.7974	121.39537	907.70337	-1545.7782	184.15152	1109.5886	-603.32831	224.45451	1097.2001	-576.36731	219.11763	1146.1042	-638.91687	164.01639	1102.2754	-1249.5204	196.42575	1160.089	-1205.7301	206.7231	1127.4741	-1257.7324
708	3.535	400.03754	868.06458	-970.41815	401.08847	869.55219	-910.83093	388.67432	882.24036	-940.22339	208.32153	252.20793	196.62729	179.12553	244.42682	-2023.8065	293.98138	32.266415	-1361.0853	122.68104	43.506332	-1458.1023	185.06613	32.584511	-1510.0292	150.42105	41.690632	-1488.3881	334.03497	41.756329	-488.82117	159.52943	48.964905	-404.10306	220.32558	32.93391	-350.18237	182.46936	46.634823	-372.77545	273.92859	64.984451	-509.73184	309.17331	74.737335	-437.54349	329.13089	206.09625	-501.0556	311.42194	268.336	-511.86276	352.39767	254.77573	-538.9306	345.42133	297.05481	-549.37555	241.71754	59.428577	-1350.8038	279.01797	73.503212	-1414.5665	269.71698	313.58112	-1338.8003	312.74976	296.5723	-1318.4214	283.69153	251.39011	-1355.4873	352.91675	728.95941	-1131.4316	274.93143	607.49762	-1206.1069	320.67825	585.37286	-1199.4448	319.8407	648.79431	-1180.6301	368.12479	719.79236	-741.20587	345.10355	595.92285	-674.9696	295.84186	605.45459	-662.81891	325.40466	656.7757	-691.11871	-20.163315	1378.5579	-815.55505	68.834267	1446.054	-834.35187	74.454758	1444.1409	-959.18933	214.15189	1284.95	-913.75873	367.15906	923.57159	-935.34485	121.62764	1180.8386	-920.29346	209.26488	1245.2773	-761.36859	170.44511	1254.7725	-1061.9727	147.80553	909.43781	-366.62878	182.54601	922.66864	-350.79996	126.97199	845.33405	-306.94467	145.95578	949.77545	-1476.2535	187.33096	961.74945	-1495.7887	119.39806	901.96619	-1542.6842	182.89838	1106.6997	-603.9964	223.13387	1094.3525	-576.87329	217.86143	1143.7073	-639.06628	162.62161	1099.0773	-1248.5308	194.84351	1157.5858	-1205.4253	205.08783	1124.5516	-1257.1873
709	3.54	401.13766	867.90076	-970.53754	402.06152	869.46863	-910.96399	389.60803	882.07501	-940.35376	208.33034	252.20135	196.62691	179.13609	244.42731	-2023.7965	293.98169	32.303238	-1361.0913	122.66673	43.494495	-1458.1035	184.91101	32.64439	-1510.0233	150.42064	41.705463	-1488.3917	334.02533	41.777229	-488.78543	159.53972	48.987576	-404.09525	220.31235	32.940643	-350.19669	182.47469	46.660881	-372.78955	273.93549	65.013336	-509.68869	309.15594	74.703377	-437.4736	329.07437	206.16034	-500.92322	311.26797	268.37286	-511.73331	352.27518	254.85596	-538.75635	345.32864	297.12079	-549.17297	241.97412	59.461849	-1350.8019	278.9838	73.506874	-1414.6083	269.22061	313.71252	-1339.3048	312.28479	296.79721	-1318.8981	283.26547	251.52406	-1355.8921	354.40295	728.62537	-1131.6616	275.78094	607.56555	-1206.593	321.68823	585.2608	-1200.0352	320.95459	648.52747	-1181.0042	369.12054	719.69452	-741.23016	345.67856	595.83917	-674.82501	296.4079	605.49536	-662.80981	326.10898	656.82281	-690.94617	-21.977867	1376.0353	-815.40491	66.635994	1444.0769	-834.24066	72.208008	1442.229	-959.0285	212.95197	1283.9675	-913.71338	368.09229	923.40265	-935.53448	120.95251	1179.2229	-920.29877	208.05968	1243.8929	-761.06573	169.07634	1253.2561	-1062.0803	145.95628	904.66272	-369.1492	180.50099	917.97412	-352.93735	124.92542	840.11774	-310.09659	144.08113	944.86188	-1473.8303	185.26918	957.00702	-1493.7935	117.47997	896.25092	-1539.5433	181.63057	1103.7938	-604.67584	221.79948	1091.4698	-577.45831	216.59235	1141.2089	-639.32568	161.22646	1095.9542	-1247.449	193.26752	1155.0688	-1205.0914	203.3644	1121.7499	-1256.6975
710	3.545	402.16064	867.72223	-970.70441	402.86343	869.32745	-911.30463	390.60553	881.87555	-940.55322	208.3262	252.19495	196.61702	179.1293	244.42261	-2023.8075	293.95987	32.339973	-1361.114	122.64291	43.491337	-1458.1023	184.93634	32.636986	-1510.0231	150.40897	41.712112	-1488.3966	334.02609	41.809349	-488.75525	159.54221	48.992748	-404.10309	220.31895	32.948582	-350.20117	182.46782	46.669491	-372.80515	274.12823	64.798088	-509.68558	309.14465	74.705994	-437.40225	329.01855	206.21092	-500.75049	311.10324	268.41113	-511.15097	352.17374	254.91527	-538.55652	345.22412	297.19315	-548.99945	241.94479	59.492157	-1350.8402	278.95566	73.509392	-1414.6624	268.78027	313.827	-1339.821	311.83792	297.01736	-1319.3337	282.89053	251.60799	-1356.2073	355.84265	728.30292	-1131.9121	276.60818	607.50598	-1207.0829	322.35248	584.99078	-1200.386	322.01532	648.23083	-1181.4467	370.12134	719.56494	-741.29858	346.26776	595.78094	-674.68164	296.98975	605.53229	-662.80768	326.90875	656.73328	-690.97321	-23.697195	1373.495	-815.26093	64.454422	1442.0762	-834.11871	69.965477	1440.311	-958.86432	211.69958	1282.9144	-913.66809	368.88565	923.2074	-935.74762	120.34592	1177.5554	-920.2934	206.8847	1242.4255	-760.8175	167.67523	1251.7516	-1062.173	144.11206	899.86713	-371.75632	178.46667	913.10748	-355.30142	122.86977	834.89197	-313.27808	142.20486	939.94867	-1471.3154	183.12778	952.24847	-1491.7362	115.334	890.54828	-1536.4203	180.3587	1100.8689	-605.37378	220.47392	1088.5081	-578.03687	215.30287	1138.7662	-639.48102	159.89043	1092.8556	-1246.361	191.69147	1152.5499	-1204.7063	201.6996	1118.881	-1256.1373
